<svg width="441" height="460" xmlns="http://www.w3.org/2000/svg" xmlns:xlink="http://www.w3.org/1999/xlink" overflow="hidden"><g transform="translate(-185 -97)"><path d="M185 118.019C185 106.41 194.411 97 206.019 97L603.981 97C615.589 97 625 106.41 625 118.019L625 535.981C625 547.589 615.589 557 603.981 557L206.019 557C194.411 557 185 547.589 185 535.981Z" fill="#548235" fill-rule="evenodd"/><path d="M201 119.733C201 116.567 203.567 114 206.733 114L601.267 114C604.433 114 607 116.567 607 119.733L607 228.267C607 231.433 604.433 234 601.267 234L206.733 234C203.567 234 201 231.433 201 228.267Z" fill="#E2F0D9" fill-rule="evenodd"/><path d="M201 254.057C201 252.369 202.369 251 204.057 251L322.943 251C324.631 251 326 252.369 326 254.057L326 311.943C326 313.631 324.631 315 322.943 315L204.057 315C202.369 315 201 313.631 201 311.943Z" fill="#E2F0D9" fill-rule="evenodd"/><path d="M201 330.057C201 328.369 202.369 327 204.057 327L322.943 327C324.631 327 326 328.369 326 330.057L326 387.943C326 389.631 324.631 391 322.943 391L204.057 391C202.369 391 201 389.631 201 387.943Z" fill="#E2F0D9" fill-rule="evenodd"/><path d="M201 405.057C201 403.369 202.369 402 204.057 402L322.943 402C324.631 402 326 403.369 326 405.057L326 462.943C326 464.631 324.631 466 322.943 466L204.057 466C202.369 466 201 464.631 201 462.943Z" fill="#E2F0D9" fill-rule="evenodd"/><path d="M201 481.057C201 479.369 202.369 478 204.057 478L322.943 478C324.631 478 326 479.369 326 481.057L326 538.943C326 540.631 324.631 542 322.943 542L204.057 542C202.369 542 201 540.631 201 538.943Z" fill="#E2F0D9" fill-rule="evenodd"/><path d="M342 253.057C342 251.369 343.369 250 345.057 250L462.943 250C464.631 250 466 251.369 466 253.057L466 310.943C466 312.631 464.631 314 462.943 314L345.057 314C343.369 314 342 312.631 342 310.943Z" fill="#E2F0D9" fill-rule="evenodd"/><path d="M342 329.057C342 327.369 343.369 326 345.057 326L462.943 326C464.631 326 466 327.369 466 329.057L466 386.943C466 388.631 464.631 390 462.943 390L345.057 390C343.369 390 342 388.631 342 386.943Z" fill="#E2F0D9" fill-rule="evenodd"/><path d="M342 404.057C342 402.369 343.369 401 345.057 401L462.943 401C464.631 401 466 402.369 466 404.057L466 461.943C466 463.631 464.631 465 462.943 465L345.057 465C343.369 465 342 463.631 342 461.943Z" fill="#E2F0D9" fill-rule="evenodd"/><path d="M342 480.057C342 478.369 343.369 477 345.057 477L462.943 477C464.631 477 466 478.369 466 480.057L466 537.943C466 539.631 464.631 541 462.943 541L345.057 541C343.369 541 342 539.631 342 537.943Z" fill="#E2F0D9" fill-rule="evenodd"/><path d="M482 252.057C482 250.369 483.369 249 485.057 249L603.943 249C605.631 249 607 250.369 607 252.057L607 309.943C607 311.631 605.631 313 603.943 313L485.057 313C483.369 313 482 311.631 482 309.943Z" fill="#E2F0D9" fill-rule="evenodd"/><path d="M482 330.971C482 327.673 484.673 325 487.971 325L601.029 325C604.327 325 607 327.673 607 330.971L607 535.029C607 538.327 604.327 541 601.029 541L487.971 541C484.673 541 482 538.327 482 535.029Z" fill="#E2F0D9" fill-rule="evenodd"/></g></svg>